<mxfile host="app.diagrams.net" modified="2024-01-08T19:47:26.171Z" agent="Mozilla/5.0 (Windows NT 10.0; Win64; x64) AppleWebKit/537.36 (KHTML, like Gecko) Chrome/120.0.0.0 Safari/537.36" etag="FU1o7ysuOWx3a56mA-7q" version="22.1.17" type="google">
  <diagram id="C5RBs43oDa-KdzZeNtuy" name="Page-1">
    <mxGraphModel grid="1" page="1" gridSize="10" guides="1" tooltips="1" connect="1" arrows="1" fold="1" pageScale="1" pageWidth="827" pageHeight="1169" math="0" shadow="0">
      <root>
        <mxCell id="WIyWlLk6GJQsqaUBKTNV-0" />
        <mxCell id="WIyWlLk6GJQsqaUBKTNV-1" parent="WIyWlLk6GJQsqaUBKTNV-0" />
        <mxCell id="7DHuiDKXyNgCOekrpri2-46" style="edgeStyle=orthogonalEdgeStyle;rounded=0;orthogonalLoop=1;jettySize=auto;html=1;exitX=1;exitY=0.5;exitDx=0;exitDy=0;entryX=0;entryY=0.5;entryDx=0;entryDy=0;" edge="1" parent="WIyWlLk6GJQsqaUBKTNV-1" source="7DHuiDKXyNgCOekrpri2-42" target="7DHuiDKXyNgCOekrpri2-45">
          <mxGeometry relative="1" as="geometry" />
        </mxCell>
        <mxCell id="7DHuiDKXyNgCOekrpri2-42" value="filter(記帳紀錄)" style="shape=process;whiteSpace=wrap;html=1;backgroundOutline=1;" vertex="1" parent="WIyWlLk6GJQsqaUBKTNV-1">
          <mxGeometry x="40" y="100" width="110" height="30" as="geometry" />
        </mxCell>
        <mxCell id="7DHuiDKXyNgCOekrpri2-86" style="edgeStyle=orthogonalEdgeStyle;rounded=0;orthogonalLoop=1;jettySize=auto;html=1;exitX=1;exitY=0.5;exitDx=0;exitDy=0;entryX=0;entryY=0.5;entryDx=0;entryDy=0;" edge="1" parent="WIyWlLk6GJQsqaUBKTNV-1" source="7DHuiDKXyNgCOekrpri2-45" target="7DHuiDKXyNgCOekrpri2-84">
          <mxGeometry relative="1" as="geometry" />
        </mxCell>
        <mxCell id="7DHuiDKXyNgCOekrpri2-45" value="輸入要查詢的項目" style="shape=parallelogram;perimeter=parallelogramPerimeter;whiteSpace=wrap;html=1;fixedSize=1;" vertex="1" parent="WIyWlLk6GJQsqaUBKTNV-1">
          <mxGeometry x="163.5" y="97.5" width="130" height="35" as="geometry" />
        </mxCell>
        <mxCell id="7DHuiDKXyNgCOekrpri2-52" value="" style="edgeStyle=orthogonalEdgeStyle;rounded=0;orthogonalLoop=1;jettySize=auto;html=1;" edge="1" parent="WIyWlLk6GJQsqaUBKTNV-1" source="7DHuiDKXyNgCOekrpri2-47" target="7DHuiDKXyNgCOekrpri2-51">
          <mxGeometry relative="1" as="geometry" />
        </mxCell>
        <mxCell id="7DHuiDKXyNgCOekrpri2-47" value="將記帳紀錄的每個資料拉出來篩選" style="rounded=0;whiteSpace=wrap;html=1;" vertex="1" parent="WIyWlLk6GJQsqaUBKTNV-1">
          <mxGeometry x="430" y="90" width="85" height="50" as="geometry" />
        </mxCell>
        <mxCell id="7DHuiDKXyNgCOekrpri2-54" value="" style="edgeStyle=orthogonalEdgeStyle;rounded=0;orthogonalLoop=1;jettySize=auto;html=1;" edge="1" parent="WIyWlLk6GJQsqaUBKTNV-1" source="7DHuiDKXyNgCOekrpri2-51" target="7DHuiDKXyNgCOekrpri2-53">
          <mxGeometry relative="1" as="geometry" />
        </mxCell>
        <mxCell id="7DHuiDKXyNgCOekrpri2-55" value="True" style="edgeLabel;html=1;align=center;verticalAlign=middle;resizable=0;points=[];" connectable="0" vertex="1" parent="7DHuiDKXyNgCOekrpri2-54">
          <mxGeometry x="-0.187" y="-2" relative="1" as="geometry">
            <mxPoint x="1" as="offset" />
          </mxGeometry>
        </mxCell>
        <mxCell id="7DHuiDKXyNgCOekrpri2-64" style="edgeStyle=orthogonalEdgeStyle;rounded=0;orthogonalLoop=1;jettySize=auto;html=1;exitX=0.5;exitY=0;exitDx=0;exitDy=0;entryX=0.5;entryY=0;entryDx=0;entryDy=0;" edge="1" parent="WIyWlLk6GJQsqaUBKTNV-1" source="7DHuiDKXyNgCOekrpri2-51" target="7DHuiDKXyNgCOekrpri2-84">
          <mxGeometry relative="1" as="geometry" />
        </mxCell>
        <mxCell id="7DHuiDKXyNgCOekrpri2-65" value="False" style="edgeLabel;html=1;align=center;verticalAlign=middle;resizable=0;points=[];" connectable="0" vertex="1" parent="7DHuiDKXyNgCOekrpri2-64">
          <mxGeometry x="-0.4227" y="-1" relative="1" as="geometry">
            <mxPoint as="offset" />
          </mxGeometry>
        </mxCell>
        <mxCell id="7DHuiDKXyNgCOekrpri2-51" value="如果輸入要查找的項目與資料相同 或是 輸入是空的" style="rhombus;whiteSpace=wrap;html=1;rounded=0;" vertex="1" parent="WIyWlLk6GJQsqaUBKTNV-1">
          <mxGeometry x="540" y="78.75" width="142.5" height="72.5" as="geometry" />
        </mxCell>
        <mxCell id="7DHuiDKXyNgCOekrpri2-85" style="edgeStyle=orthogonalEdgeStyle;rounded=0;orthogonalLoop=1;jettySize=auto;html=1;exitX=0.5;exitY=1;exitDx=0;exitDy=0;entryX=1;entryY=1;entryDx=0;entryDy=0;" edge="1" parent="WIyWlLk6GJQsqaUBKTNV-1" source="7DHuiDKXyNgCOekrpri2-53" target="7DHuiDKXyNgCOekrpri2-84">
          <mxGeometry relative="1" as="geometry">
            <Array as="points">
              <mxPoint x="757" y="165" />
              <mxPoint x="375" y="165" />
            </Array>
          </mxGeometry>
        </mxCell>
        <mxCell id="7DHuiDKXyNgCOekrpri2-53" value="將資料放入篩選過後的結果中" style="whiteSpace=wrap;html=1;rounded=0;" vertex="1" parent="WIyWlLk6GJQsqaUBKTNV-1">
          <mxGeometry x="710" y="85" width="93" height="60" as="geometry" />
        </mxCell>
        <mxCell id="7DHuiDKXyNgCOekrpri2-62" style="edgeStyle=orthogonalEdgeStyle;rounded=0;orthogonalLoop=1;jettySize=auto;html=1;exitX=1;exitY=0.5;exitDx=0;exitDy=0;entryX=0;entryY=0.5;entryDx=0;entryDy=0;" edge="1" parent="WIyWlLk6GJQsqaUBKTNV-1" source="7DHuiDKXyNgCOekrpri2-57" target="7DHuiDKXyNgCOekrpri2-59">
          <mxGeometry relative="1" as="geometry" />
        </mxCell>
        <mxCell id="7DHuiDKXyNgCOekrpri2-63" value="True" style="edgeLabel;html=1;align=center;verticalAlign=middle;resizable=0;points=[];" connectable="0" vertex="1" parent="7DHuiDKXyNgCOekrpri2-62">
          <mxGeometry x="-0.0943" y="1" relative="1" as="geometry">
            <mxPoint as="offset" />
          </mxGeometry>
        </mxCell>
        <mxCell id="7DHuiDKXyNgCOekrpri2-69" style="edgeStyle=orthogonalEdgeStyle;rounded=0;orthogonalLoop=1;jettySize=auto;html=1;exitX=0.5;exitY=1;exitDx=0;exitDy=0;entryX=0.5;entryY=0;entryDx=0;entryDy=0;" edge="1" parent="WIyWlLk6GJQsqaUBKTNV-1" source="7DHuiDKXyNgCOekrpri2-57" target="7DHuiDKXyNgCOekrpri2-68">
          <mxGeometry relative="1" as="geometry" />
        </mxCell>
        <mxCell id="7DHuiDKXyNgCOekrpri2-70" value="False" style="edgeLabel;html=1;align=center;verticalAlign=middle;resizable=0;points=[];" connectable="0" vertex="1" parent="7DHuiDKXyNgCOekrpri2-69">
          <mxGeometry x="-0.2839" y="2" relative="1" as="geometry">
            <mxPoint as="offset" />
          </mxGeometry>
        </mxCell>
        <mxCell id="7DHuiDKXyNgCOekrpri2-57" value="如果篩選過後沒有資料" style="rhombus;whiteSpace=wrap;html=1;rounded=0;" vertex="1" parent="WIyWlLk6GJQsqaUBKTNV-1">
          <mxGeometry x="827" y="75" width="80" height="80" as="geometry" />
        </mxCell>
        <mxCell id="7DHuiDKXyNgCOekrpri2-67" value="" style="edgeStyle=orthogonalEdgeStyle;rounded=0;orthogonalLoop=1;jettySize=auto;html=1;" edge="1" parent="WIyWlLk6GJQsqaUBKTNV-1" source="7DHuiDKXyNgCOekrpri2-59" target="7DHuiDKXyNgCOekrpri2-66">
          <mxGeometry relative="1" as="geometry" />
        </mxCell>
        <mxCell id="7DHuiDKXyNgCOekrpri2-59" value="輸出&#39;查無資料&#39;" style="shape=parallelogram;perimeter=parallelogramPerimeter;whiteSpace=wrap;html=1;fixedSize=1;" vertex="1" parent="WIyWlLk6GJQsqaUBKTNV-1">
          <mxGeometry x="940" y="85" width="120" height="60" as="geometry" />
        </mxCell>
        <mxCell id="7DHuiDKXyNgCOekrpri2-66" value="end" style="ellipse;whiteSpace=wrap;html=1;" vertex="1" parent="WIyWlLk6GJQsqaUBKTNV-1">
          <mxGeometry x="1080" y="75" width="80" height="80" as="geometry" />
        </mxCell>
        <mxCell id="7DHuiDKXyNgCOekrpri2-89" style="edgeStyle=orthogonalEdgeStyle;rounded=0;orthogonalLoop=1;jettySize=auto;html=1;exitX=0;exitY=0.5;exitDx=0;exitDy=0;entryX=1;entryY=0.5;entryDx=0;entryDy=0;" edge="1" parent="WIyWlLk6GJQsqaUBKTNV-1" source="7DHuiDKXyNgCOekrpri2-68" target="7DHuiDKXyNgCOekrpri2-88">
          <mxGeometry relative="1" as="geometry" />
        </mxCell>
        <mxCell id="7DHuiDKXyNgCOekrpri2-68" value="輸入要查詢的種類" style="shape=parallelogram;perimeter=parallelogramPerimeter;whiteSpace=wrap;html=1;fixedSize=1;" vertex="1" parent="WIyWlLk6GJQsqaUBKTNV-1">
          <mxGeometry x="802" y="275.13" width="130" height="35" as="geometry" />
        </mxCell>
        <mxCell id="7DHuiDKXyNgCOekrpri2-76" style="edgeStyle=orthogonalEdgeStyle;rounded=0;orthogonalLoop=1;jettySize=auto;html=1;exitX=0;exitY=0.5;exitDx=0;exitDy=0;entryX=1;entryY=0.5;entryDx=0;entryDy=0;" edge="1" parent="WIyWlLk6GJQsqaUBKTNV-1" source="7DHuiDKXyNgCOekrpri2-71" target="7DHuiDKXyNgCOekrpri2-75">
          <mxGeometry relative="1" as="geometry" />
        </mxCell>
        <mxCell id="7DHuiDKXyNgCOekrpri2-71" value="將上個結果的每個資料拉出來篩選" style="rounded=0;whiteSpace=wrap;html=1;" vertex="1" parent="WIyWlLk6GJQsqaUBKTNV-1">
          <mxGeometry x="568.75" y="267.63" width="85" height="50" as="geometry" />
        </mxCell>
        <mxCell id="7DHuiDKXyNgCOekrpri2-77" style="edgeStyle=orthogonalEdgeStyle;rounded=0;orthogonalLoop=1;jettySize=auto;html=1;exitX=0.5;exitY=1;exitDx=0;exitDy=0;entryX=0.5;entryY=1;entryDx=0;entryDy=0;" edge="1" parent="WIyWlLk6GJQsqaUBKTNV-1" source="7DHuiDKXyNgCOekrpri2-75" target="7DHuiDKXyNgCOekrpri2-88">
          <mxGeometry relative="1" as="geometry" />
        </mxCell>
        <mxCell id="7DHuiDKXyNgCOekrpri2-78" value="False" style="edgeLabel;html=1;align=center;verticalAlign=middle;resizable=0;points=[];" connectable="0" vertex="1" parent="7DHuiDKXyNgCOekrpri2-77">
          <mxGeometry x="-0.7115" y="1" relative="1" as="geometry">
            <mxPoint as="offset" />
          </mxGeometry>
        </mxCell>
        <mxCell id="7DHuiDKXyNgCOekrpri2-80" style="edgeStyle=orthogonalEdgeStyle;rounded=0;orthogonalLoop=1;jettySize=auto;html=1;exitX=0;exitY=0.5;exitDx=0;exitDy=0;entryX=1;entryY=0.5;entryDx=0;entryDy=0;" edge="1" parent="WIyWlLk6GJQsqaUBKTNV-1" source="7DHuiDKXyNgCOekrpri2-75" target="7DHuiDKXyNgCOekrpri2-79">
          <mxGeometry relative="1" as="geometry" />
        </mxCell>
        <mxCell id="7DHuiDKXyNgCOekrpri2-81" value="True" style="edgeLabel;html=1;align=center;verticalAlign=middle;resizable=0;points=[];" connectable="0" vertex="1" parent="7DHuiDKXyNgCOekrpri2-80">
          <mxGeometry x="0.0395" y="2" relative="1" as="geometry">
            <mxPoint as="offset" />
          </mxGeometry>
        </mxCell>
        <mxCell id="7DHuiDKXyNgCOekrpri2-75" value="如果輸入要查找的種類與資料相同 或是 輸入是空的" style="rhombus;whiteSpace=wrap;html=1;rounded=0;" vertex="1" parent="WIyWlLk6GJQsqaUBKTNV-1">
          <mxGeometry x="414" y="256.38" width="142.5" height="72.5" as="geometry" />
        </mxCell>
        <mxCell id="7DHuiDKXyNgCOekrpri2-82" style="edgeStyle=orthogonalEdgeStyle;rounded=0;orthogonalLoop=1;jettySize=auto;html=1;exitX=0.5;exitY=0;exitDx=0;exitDy=0;entryX=0.5;entryY=0;entryDx=0;entryDy=0;" edge="1" parent="WIyWlLk6GJQsqaUBKTNV-1" source="7DHuiDKXyNgCOekrpri2-79" target="7DHuiDKXyNgCOekrpri2-71">
          <mxGeometry relative="1" as="geometry" />
        </mxCell>
        <mxCell id="7DHuiDKXyNgCOekrpri2-79" value="將資料放入篩選過後的結果中" style="whiteSpace=wrap;html=1;rounded=0;" vertex="1" parent="WIyWlLk6GJQsqaUBKTNV-1">
          <mxGeometry x="275" y="260" width="93" height="60" as="geometry" />
        </mxCell>
        <mxCell id="7DHuiDKXyNgCOekrpri2-87" style="edgeStyle=orthogonalEdgeStyle;rounded=0;orthogonalLoop=1;jettySize=auto;html=1;exitX=1;exitY=0.5;exitDx=0;exitDy=0;entryX=0;entryY=0.5;entryDx=0;entryDy=0;" edge="1" parent="WIyWlLk6GJQsqaUBKTNV-1" source="7DHuiDKXyNgCOekrpri2-84" target="7DHuiDKXyNgCOekrpri2-47">
          <mxGeometry relative="1" as="geometry" />
        </mxCell>
        <mxCell id="7DHuiDKXyNgCOekrpri2-99" value="True" style="edgeLabel;html=1;align=center;verticalAlign=middle;resizable=0;points=[];" connectable="0" vertex="1" parent="7DHuiDKXyNgCOekrpri2-87">
          <mxGeometry x="-0.3957" y="-1" relative="1" as="geometry">
            <mxPoint as="offset" />
          </mxGeometry>
        </mxCell>
        <mxCell id="7DHuiDKXyNgCOekrpri2-101" style="edgeStyle=orthogonalEdgeStyle;rounded=0;orthogonalLoop=1;jettySize=auto;html=1;exitX=0.5;exitY=1;exitDx=0;exitDy=0;entryX=0;entryY=0.5;entryDx=0;entryDy=0;" edge="1" parent="WIyWlLk6GJQsqaUBKTNV-1" source="7DHuiDKXyNgCOekrpri2-84" target="7DHuiDKXyNgCOekrpri2-57">
          <mxGeometry relative="1" as="geometry">
            <Array as="points">
              <mxPoint x="350" y="175" />
              <mxPoint x="810" y="175" />
              <mxPoint x="810" y="115" />
            </Array>
          </mxGeometry>
        </mxCell>
        <mxCell id="7DHuiDKXyNgCOekrpri2-102" value="False" style="edgeLabel;html=1;align=center;verticalAlign=middle;resizable=0;points=[];" connectable="0" vertex="1" parent="7DHuiDKXyNgCOekrpri2-101">
          <mxGeometry x="-0.8991" y="-1" relative="1" as="geometry">
            <mxPoint as="offset" />
          </mxGeometry>
        </mxCell>
        <mxCell id="7DHuiDKXyNgCOekrpri2-84" value="for 資料 in 記帳紀錄" style="rhombus;whiteSpace=wrap;html=1;" vertex="1" parent="WIyWlLk6GJQsqaUBKTNV-1">
          <mxGeometry x="300" y="75" width="100" height="80" as="geometry" />
        </mxCell>
        <mxCell id="7DHuiDKXyNgCOekrpri2-90" style="edgeStyle=orthogonalEdgeStyle;rounded=0;orthogonalLoop=1;jettySize=auto;html=1;exitX=0;exitY=0.5;exitDx=0;exitDy=0;entryX=1;entryY=0.5;entryDx=0;entryDy=0;" edge="1" parent="WIyWlLk6GJQsqaUBKTNV-1" source="7DHuiDKXyNgCOekrpri2-88" target="7DHuiDKXyNgCOekrpri2-71">
          <mxGeometry relative="1" as="geometry" />
        </mxCell>
        <mxCell id="7DHuiDKXyNgCOekrpri2-105" value="True" style="edgeLabel;html=1;align=center;verticalAlign=middle;resizable=0;points=[];" connectable="0" vertex="1" parent="7DHuiDKXyNgCOekrpri2-90">
          <mxGeometry x="-0.35" y="1" relative="1" as="geometry">
            <mxPoint x="1" as="offset" />
          </mxGeometry>
        </mxCell>
        <mxCell id="7DHuiDKXyNgCOekrpri2-106" style="edgeStyle=orthogonalEdgeStyle;rounded=0;orthogonalLoop=1;jettySize=auto;html=1;exitX=0.5;exitY=0;exitDx=0;exitDy=0;entryX=0.5;entryY=0;entryDx=0;entryDy=0;" edge="1" parent="WIyWlLk6GJQsqaUBKTNV-1" source="7DHuiDKXyNgCOekrpri2-88" target="7DHuiDKXyNgCOekrpri2-94">
          <mxGeometry relative="1" as="geometry" />
        </mxCell>
        <mxCell id="7DHuiDKXyNgCOekrpri2-107" value="False" style="edgeLabel;html=1;align=center;verticalAlign=middle;resizable=0;points=[];" connectable="0" vertex="1" parent="7DHuiDKXyNgCOekrpri2-106">
          <mxGeometry x="-0.813" y="2" relative="1" as="geometry">
            <mxPoint as="offset" />
          </mxGeometry>
        </mxCell>
        <mxCell id="7DHuiDKXyNgCOekrpri2-88" value="for 資料 in 上個篩選結果" style="rhombus;whiteSpace=wrap;html=1;" vertex="1" parent="WIyWlLk6GJQsqaUBKTNV-1">
          <mxGeometry x="682.5" y="252.63" width="100" height="80" as="geometry" />
        </mxCell>
        <mxCell id="7DHuiDKXyNgCOekrpri2-92" value="end" style="ellipse;whiteSpace=wrap;html=1;" vertex="1" parent="WIyWlLk6GJQsqaUBKTNV-1">
          <mxGeometry x="-60" y="250" width="80" height="80" as="geometry" />
        </mxCell>
        <mxCell id="7DHuiDKXyNgCOekrpri2-97" style="edgeStyle=orthogonalEdgeStyle;rounded=0;orthogonalLoop=1;jettySize=auto;html=1;exitX=0;exitY=0.5;exitDx=0;exitDy=0;entryX=1;entryY=0.5;entryDx=0;entryDy=0;" edge="1" parent="WIyWlLk6GJQsqaUBKTNV-1" source="7DHuiDKXyNgCOekrpri2-93" target="7DHuiDKXyNgCOekrpri2-92">
          <mxGeometry relative="1" as="geometry" />
        </mxCell>
        <mxCell id="7DHuiDKXyNgCOekrpri2-93" value="輸出&#39;查無資料&#39;" style="shape=parallelogram;perimeter=parallelogramPerimeter;whiteSpace=wrap;html=1;fixedSize=1;" vertex="1" parent="WIyWlLk6GJQsqaUBKTNV-1">
          <mxGeometry x="20" y="260" width="120" height="60" as="geometry" />
        </mxCell>
        <mxCell id="7DHuiDKXyNgCOekrpri2-96" style="edgeStyle=orthogonalEdgeStyle;rounded=0;orthogonalLoop=1;jettySize=auto;html=1;exitX=0;exitY=0.5;exitDx=0;exitDy=0;entryX=1;entryY=0.5;entryDx=0;entryDy=0;" edge="1" parent="WIyWlLk6GJQsqaUBKTNV-1" source="7DHuiDKXyNgCOekrpri2-94" target="7DHuiDKXyNgCOekrpri2-93">
          <mxGeometry relative="1" as="geometry" />
        </mxCell>
        <mxCell id="7DHuiDKXyNgCOekrpri2-98" value="True" style="edgeLabel;html=1;align=center;verticalAlign=middle;resizable=0;points=[];" connectable="0" vertex="1" parent="7DHuiDKXyNgCOekrpri2-96">
          <mxGeometry x="-0.2498" y="-1" relative="1" as="geometry">
            <mxPoint as="offset" />
          </mxGeometry>
        </mxCell>
        <mxCell id="7DHuiDKXyNgCOekrpri2-136" style="edgeStyle=orthogonalEdgeStyle;rounded=0;orthogonalLoop=1;jettySize=auto;html=1;exitX=0.5;exitY=1;exitDx=0;exitDy=0;entryX=0.5;entryY=0;entryDx=0;entryDy=0;" edge="1" parent="WIyWlLk6GJQsqaUBKTNV-1" source="7DHuiDKXyNgCOekrpri2-94" target="7DHuiDKXyNgCOekrpri2-135">
          <mxGeometry relative="1" as="geometry" />
        </mxCell>
        <mxCell id="7DHuiDKXyNgCOekrpri2-94" value="如果篩選過後沒有資料" style="rhombus;whiteSpace=wrap;html=1;rounded=0;" vertex="1" parent="WIyWlLk6GJQsqaUBKTNV-1">
          <mxGeometry x="161.5" y="250" width="80" height="80" as="geometry" />
        </mxCell>
        <mxCell id="7DHuiDKXyNgCOekrpri2-115" style="edgeStyle=orthogonalEdgeStyle;rounded=0;orthogonalLoop=1;jettySize=auto;html=1;exitX=1;exitY=0.5;exitDx=0;exitDy=0;entryX=0;entryY=0.5;entryDx=0;entryDy=0;" edge="1" parent="WIyWlLk6GJQsqaUBKTNV-1" source="7DHuiDKXyNgCOekrpri2-109" target="7DHuiDKXyNgCOekrpri2-110">
          <mxGeometry relative="1" as="geometry" />
        </mxCell>
        <mxCell id="7DHuiDKXyNgCOekrpri2-132" value="True" style="edgeLabel;html=1;align=center;verticalAlign=middle;resizable=0;points=[];" connectable="0" vertex="1" parent="7DHuiDKXyNgCOekrpri2-115">
          <mxGeometry x="0.1875" y="1" relative="1" as="geometry">
            <mxPoint y="1" as="offset" />
          </mxGeometry>
        </mxCell>
        <mxCell id="7DHuiDKXyNgCOekrpri2-129" style="edgeStyle=orthogonalEdgeStyle;rounded=0;orthogonalLoop=1;jettySize=auto;html=1;exitX=0.5;exitY=1;exitDx=0;exitDy=0;entryX=0;entryY=0.5;entryDx=0;entryDy=0;" edge="1" parent="WIyWlLk6GJQsqaUBKTNV-1" source="7DHuiDKXyNgCOekrpri2-109" target="7DHuiDKXyNgCOekrpri2-118">
          <mxGeometry relative="1" as="geometry">
            <Array as="points">
              <mxPoint x="364" y="500" />
              <mxPoint x="810" y="500" />
              <mxPoint x="810" y="440" />
            </Array>
          </mxGeometry>
        </mxCell>
        <mxCell id="7DHuiDKXyNgCOekrpri2-133" value="False" style="edgeLabel;html=1;align=center;verticalAlign=middle;resizable=0;points=[];" connectable="0" vertex="1" parent="7DHuiDKXyNgCOekrpri2-129">
          <mxGeometry x="-0.98" y="-1" relative="1" as="geometry">
            <mxPoint y="1" as="offset" />
          </mxGeometry>
        </mxCell>
        <mxCell id="7DHuiDKXyNgCOekrpri2-109" value="for 資料 in 上個篩選結果" style="rhombus;whiteSpace=wrap;html=1;" vertex="1" parent="WIyWlLk6GJQsqaUBKTNV-1">
          <mxGeometry x="314" y="400" width="100" height="80" as="geometry" />
        </mxCell>
        <mxCell id="7DHuiDKXyNgCOekrpri2-116" style="edgeStyle=orthogonalEdgeStyle;rounded=0;orthogonalLoop=1;jettySize=auto;html=1;exitX=1;exitY=0.5;exitDx=0;exitDy=0;entryX=0;entryY=0.5;entryDx=0;entryDy=0;" edge="1" parent="WIyWlLk6GJQsqaUBKTNV-1" source="7DHuiDKXyNgCOekrpri2-110" target="7DHuiDKXyNgCOekrpri2-111">
          <mxGeometry relative="1" as="geometry" />
        </mxCell>
        <mxCell id="7DHuiDKXyNgCOekrpri2-110" value="將記帳紀錄的每個資料拉出來篩選" style="rounded=0;whiteSpace=wrap;html=1;" vertex="1" parent="WIyWlLk6GJQsqaUBKTNV-1">
          <mxGeometry x="430" y="415" width="85" height="50" as="geometry" />
        </mxCell>
        <mxCell id="7DHuiDKXyNgCOekrpri2-117" style="edgeStyle=orthogonalEdgeStyle;rounded=0;orthogonalLoop=1;jettySize=auto;html=1;exitX=1;exitY=0.5;exitDx=0;exitDy=0;entryX=0;entryY=0.5;entryDx=0;entryDy=0;" edge="1" parent="WIyWlLk6GJQsqaUBKTNV-1" source="7DHuiDKXyNgCOekrpri2-111" target="7DHuiDKXyNgCOekrpri2-112">
          <mxGeometry relative="1" as="geometry" />
        </mxCell>
        <mxCell id="7DHuiDKXyNgCOekrpri2-131" value="True" style="edgeLabel;html=1;align=center;verticalAlign=middle;resizable=0;points=[];" connectable="0" vertex="1" parent="7DHuiDKXyNgCOekrpri2-117">
          <mxGeometry x="-0.0545" y="3" relative="1" as="geometry">
            <mxPoint y="1" as="offset" />
          </mxGeometry>
        </mxCell>
        <mxCell id="7DHuiDKXyNgCOekrpri2-130" style="edgeStyle=orthogonalEdgeStyle;rounded=0;orthogonalLoop=1;jettySize=auto;html=1;exitX=0.5;exitY=0;exitDx=0;exitDy=0;entryX=0.5;entryY=0;entryDx=0;entryDy=0;" edge="1" parent="WIyWlLk6GJQsqaUBKTNV-1" source="7DHuiDKXyNgCOekrpri2-111" target="7DHuiDKXyNgCOekrpri2-109">
          <mxGeometry relative="1" as="geometry" />
        </mxCell>
        <mxCell id="7DHuiDKXyNgCOekrpri2-134" value="False" style="edgeLabel;html=1;align=center;verticalAlign=middle;resizable=0;points=[];" connectable="0" vertex="1" parent="7DHuiDKXyNgCOekrpri2-130">
          <mxGeometry x="-0.9021" y="-1" relative="1" as="geometry">
            <mxPoint as="offset" />
          </mxGeometry>
        </mxCell>
        <mxCell id="7DHuiDKXyNgCOekrpri2-111" value="如果輸入要查找的日期與資料相同 或是 輸入是空的" style="rhombus;whiteSpace=wrap;html=1;rounded=0;" vertex="1" parent="WIyWlLk6GJQsqaUBKTNV-1">
          <mxGeometry x="540" y="403.75" width="142.5" height="72.5" as="geometry" />
        </mxCell>
        <mxCell id="7DHuiDKXyNgCOekrpri2-112" value="將資料放入篩選過後的結果中" style="whiteSpace=wrap;html=1;rounded=0;" vertex="1" parent="WIyWlLk6GJQsqaUBKTNV-1">
          <mxGeometry x="710" y="410" width="93" height="60" as="geometry" />
        </mxCell>
        <mxCell id="7DHuiDKXyNgCOekrpri2-122" style="edgeStyle=orthogonalEdgeStyle;rounded=0;orthogonalLoop=1;jettySize=auto;html=1;exitX=1;exitY=0.5;exitDx=0;exitDy=0;entryX=0;entryY=0.5;entryDx=0;entryDy=0;" edge="1" parent="WIyWlLk6GJQsqaUBKTNV-1" source="7DHuiDKXyNgCOekrpri2-118" target="7DHuiDKXyNgCOekrpri2-119">
          <mxGeometry relative="1" as="geometry" />
        </mxCell>
        <mxCell id="7DHuiDKXyNgCOekrpri2-128" value="True" style="edgeLabel;html=1;align=center;verticalAlign=middle;resizable=0;points=[];" connectable="0" vertex="1" parent="7DHuiDKXyNgCOekrpri2-122">
          <mxGeometry x="-0.2991" y="-2" relative="1" as="geometry">
            <mxPoint y="4" as="offset" />
          </mxGeometry>
        </mxCell>
        <mxCell id="7DHuiDKXyNgCOekrpri2-160" style="edgeStyle=orthogonalEdgeStyle;rounded=0;orthogonalLoop=1;jettySize=auto;html=1;exitX=0.5;exitY=1;exitDx=0;exitDy=0;entryX=0.5;entryY=0;entryDx=0;entryDy=0;" edge="1" parent="WIyWlLk6GJQsqaUBKTNV-1" source="7DHuiDKXyNgCOekrpri2-118" target="7DHuiDKXyNgCOekrpri2-139">
          <mxGeometry relative="1" as="geometry" />
        </mxCell>
        <mxCell id="7DHuiDKXyNgCOekrpri2-118" value="如果篩選過後沒有資料" style="rhombus;whiteSpace=wrap;html=1;rounded=0;" vertex="1" parent="WIyWlLk6GJQsqaUBKTNV-1">
          <mxGeometry x="833.5" y="400" width="80" height="80" as="geometry" />
        </mxCell>
        <mxCell id="7DHuiDKXyNgCOekrpri2-123" style="edgeStyle=orthogonalEdgeStyle;rounded=0;orthogonalLoop=1;jettySize=auto;html=1;exitX=1;exitY=0.5;exitDx=0;exitDy=0;entryX=0;entryY=0.5;entryDx=0;entryDy=0;" edge="1" parent="WIyWlLk6GJQsqaUBKTNV-1" source="7DHuiDKXyNgCOekrpri2-119" target="7DHuiDKXyNgCOekrpri2-120">
          <mxGeometry relative="1" as="geometry" />
        </mxCell>
        <mxCell id="7DHuiDKXyNgCOekrpri2-119" value="輸出&#39;查無資料&#39;" style="shape=parallelogram;perimeter=parallelogramPerimeter;whiteSpace=wrap;html=1;fixedSize=1;" vertex="1" parent="WIyWlLk6GJQsqaUBKTNV-1">
          <mxGeometry x="946.5" y="410" width="120" height="60" as="geometry" />
        </mxCell>
        <mxCell id="7DHuiDKXyNgCOekrpri2-120" value="end" style="ellipse;whiteSpace=wrap;html=1;" vertex="1" parent="WIyWlLk6GJQsqaUBKTNV-1">
          <mxGeometry x="1086.5" y="400" width="80" height="80" as="geometry" />
        </mxCell>
        <mxCell id="7DHuiDKXyNgCOekrpri2-137" style="edgeStyle=orthogonalEdgeStyle;rounded=0;orthogonalLoop=1;jettySize=auto;html=1;exitX=1;exitY=0.5;exitDx=0;exitDy=0;entryX=0;entryY=0.5;entryDx=0;entryDy=0;" edge="1" parent="WIyWlLk6GJQsqaUBKTNV-1" source="7DHuiDKXyNgCOekrpri2-135" target="7DHuiDKXyNgCOekrpri2-109">
          <mxGeometry relative="1" as="geometry" />
        </mxCell>
        <mxCell id="7DHuiDKXyNgCOekrpri2-135" value="date_input.validate_date()" style="shape=process;whiteSpace=wrap;html=1;backgroundOutline=1;" vertex="1" parent="WIyWlLk6GJQsqaUBKTNV-1">
          <mxGeometry x="111.5" y="410" width="180" height="60" as="geometry" />
        </mxCell>
        <mxCell id="7DHuiDKXyNgCOekrpri2-162" style="edgeStyle=orthogonalEdgeStyle;rounded=0;orthogonalLoop=1;jettySize=auto;html=1;exitX=0;exitY=0.5;exitDx=0;exitDy=0;entryX=1;entryY=0.5;entryDx=0;entryDy=0;" edge="1" parent="WIyWlLk6GJQsqaUBKTNV-1" source="7DHuiDKXyNgCOekrpri2-139" target="7DHuiDKXyNgCOekrpri2-161">
          <mxGeometry relative="1" as="geometry" />
        </mxCell>
        <mxCell id="7DHuiDKXyNgCOekrpri2-139" value="輸入要查詢的金額" style="shape=parallelogram;perimeter=parallelogramPerimeter;whiteSpace=wrap;html=1;fixedSize=1;" vertex="1" parent="WIyWlLk6GJQsqaUBKTNV-1">
          <mxGeometry x="1023" y="605.97" width="130" height="35" as="geometry" />
        </mxCell>
        <mxCell id="7DHuiDKXyNgCOekrpri2-140" style="edgeStyle=orthogonalEdgeStyle;rounded=0;orthogonalLoop=1;jettySize=auto;html=1;exitX=0;exitY=0.5;exitDx=0;exitDy=0;entryX=1;entryY=0.5;entryDx=0;entryDy=0;" edge="1" parent="WIyWlLk6GJQsqaUBKTNV-1" source="7DHuiDKXyNgCOekrpri2-141" target="7DHuiDKXyNgCOekrpri2-146">
          <mxGeometry relative="1" as="geometry" />
        </mxCell>
        <mxCell id="7DHuiDKXyNgCOekrpri2-141" value="將上個結果的每個資料拉出來篩選" style="rounded=0;whiteSpace=wrap;html=1;" vertex="1" parent="WIyWlLk6GJQsqaUBKTNV-1">
          <mxGeometry x="565.75" y="601.63" width="85" height="50" as="geometry" />
        </mxCell>
        <mxCell id="7DHuiDKXyNgCOekrpri2-142" style="edgeStyle=orthogonalEdgeStyle;rounded=0;orthogonalLoop=1;jettySize=auto;html=1;exitX=0.5;exitY=1;exitDx=0;exitDy=0;entryX=0.5;entryY=1;entryDx=0;entryDy=0;" edge="1" parent="WIyWlLk6GJQsqaUBKTNV-1" source="7DHuiDKXyNgCOekrpri2-146" target="7DHuiDKXyNgCOekrpri2-153">
          <mxGeometry relative="1" as="geometry">
            <mxPoint x="515" y="665.7900000000001" as="targetPoint" />
          </mxGeometry>
        </mxCell>
        <mxCell id="7DHuiDKXyNgCOekrpri2-143" value="False" style="edgeLabel;html=1;align=center;verticalAlign=middle;resizable=0;points=[];" connectable="0" vertex="1" parent="7DHuiDKXyNgCOekrpri2-142">
          <mxGeometry x="-0.7115" y="1" relative="1" as="geometry">
            <mxPoint as="offset" />
          </mxGeometry>
        </mxCell>
        <mxCell id="7DHuiDKXyNgCOekrpri2-144" style="edgeStyle=orthogonalEdgeStyle;rounded=0;orthogonalLoop=1;jettySize=auto;html=1;exitX=0;exitY=0.5;exitDx=0;exitDy=0;entryX=1;entryY=0.5;entryDx=0;entryDy=0;" edge="1" parent="WIyWlLk6GJQsqaUBKTNV-1" source="7DHuiDKXyNgCOekrpri2-146" target="7DHuiDKXyNgCOekrpri2-148">
          <mxGeometry relative="1" as="geometry" />
        </mxCell>
        <mxCell id="7DHuiDKXyNgCOekrpri2-145" value="True" style="edgeLabel;html=1;align=center;verticalAlign=middle;resizable=0;points=[];" connectable="0" vertex="1" parent="7DHuiDKXyNgCOekrpri2-144">
          <mxGeometry x="0.0395" y="2" relative="1" as="geometry">
            <mxPoint as="offset" />
          </mxGeometry>
        </mxCell>
        <mxCell id="7DHuiDKXyNgCOekrpri2-146" value="如果輸入要查找的金額與資料相同 或是 輸入是空的" style="rhombus;whiteSpace=wrap;html=1;rounded=0;" vertex="1" parent="WIyWlLk6GJQsqaUBKTNV-1">
          <mxGeometry x="411" y="590.38" width="142.5" height="72.5" as="geometry" />
        </mxCell>
        <mxCell id="7DHuiDKXyNgCOekrpri2-147" style="edgeStyle=orthogonalEdgeStyle;rounded=0;orthogonalLoop=1;jettySize=auto;html=1;exitX=0.5;exitY=0;exitDx=0;exitDy=0;entryX=0.5;entryY=0;entryDx=0;entryDy=0;" edge="1" parent="WIyWlLk6GJQsqaUBKTNV-1" source="7DHuiDKXyNgCOekrpri2-148" target="7DHuiDKXyNgCOekrpri2-141">
          <mxGeometry relative="1" as="geometry" />
        </mxCell>
        <mxCell id="7DHuiDKXyNgCOekrpri2-148" value="將資料放入篩選過後的結果中" style="whiteSpace=wrap;html=1;rounded=0;" vertex="1" parent="WIyWlLk6GJQsqaUBKTNV-1">
          <mxGeometry x="272" y="594" width="93" height="60" as="geometry" />
        </mxCell>
        <mxCell id="7DHuiDKXyNgCOekrpri2-149" style="edgeStyle=orthogonalEdgeStyle;rounded=0;orthogonalLoop=1;jettySize=auto;html=1;exitX=0;exitY=0.5;exitDx=0;exitDy=0;entryX=1;entryY=0.5;entryDx=0;entryDy=0;" edge="1" parent="WIyWlLk6GJQsqaUBKTNV-1" source="7DHuiDKXyNgCOekrpri2-153" target="7DHuiDKXyNgCOekrpri2-141">
          <mxGeometry relative="1" as="geometry">
            <mxPoint x="465" y="625.7900000000001" as="sourcePoint" />
          </mxGeometry>
        </mxCell>
        <mxCell id="7DHuiDKXyNgCOekrpri2-150" value="True" style="edgeLabel;html=1;align=center;verticalAlign=middle;resizable=0;points=[];" connectable="0" vertex="1" parent="7DHuiDKXyNgCOekrpri2-149">
          <mxGeometry x="-0.35" y="1" relative="1" as="geometry">
            <mxPoint x="-2" y="-1" as="offset" />
          </mxGeometry>
        </mxCell>
        <mxCell id="7DHuiDKXyNgCOekrpri2-151" style="edgeStyle=orthogonalEdgeStyle;rounded=0;orthogonalLoop=1;jettySize=auto;html=1;exitX=0.5;exitY=0;exitDx=0;exitDy=0;entryX=0.5;entryY=0;entryDx=0;entryDy=0;" edge="1" parent="WIyWlLk6GJQsqaUBKTNV-1" source="7DHuiDKXyNgCOekrpri2-153" target="7DHuiDKXyNgCOekrpri2-159">
          <mxGeometry relative="1" as="geometry">
            <mxPoint x="515" y="585.7900000000001" as="sourcePoint" />
          </mxGeometry>
        </mxCell>
        <mxCell id="7DHuiDKXyNgCOekrpri2-152" value="False" style="edgeLabel;html=1;align=center;verticalAlign=middle;resizable=0;points=[];" connectable="0" vertex="1" parent="7DHuiDKXyNgCOekrpri2-151">
          <mxGeometry x="-0.813" y="2" relative="1" as="geometry">
            <mxPoint as="offset" />
          </mxGeometry>
        </mxCell>
        <mxCell id="7DHuiDKXyNgCOekrpri2-153" value="for 資料 in 上個篩選結果" style="rhombus;whiteSpace=wrap;html=1;" vertex="1" parent="WIyWlLk6GJQsqaUBKTNV-1">
          <mxGeometry x="704.5" y="586.63" width="100" height="80" as="geometry" />
        </mxCell>
        <mxCell id="7DHuiDKXyNgCOekrpri2-154" value="end" style="ellipse;whiteSpace=wrap;html=1;" vertex="1" parent="WIyWlLk6GJQsqaUBKTNV-1">
          <mxGeometry x="-63" y="584" width="80" height="80" as="geometry" />
        </mxCell>
        <mxCell id="7DHuiDKXyNgCOekrpri2-155" style="edgeStyle=orthogonalEdgeStyle;rounded=0;orthogonalLoop=1;jettySize=auto;html=1;exitX=0;exitY=0.5;exitDx=0;exitDy=0;entryX=1;entryY=0.5;entryDx=0;entryDy=0;" edge="1" parent="WIyWlLk6GJQsqaUBKTNV-1" source="7DHuiDKXyNgCOekrpri2-156" target="7DHuiDKXyNgCOekrpri2-154">
          <mxGeometry relative="1" as="geometry" />
        </mxCell>
        <mxCell id="7DHuiDKXyNgCOekrpri2-156" value="輸出&#39;查無資料&#39;" style="shape=parallelogram;perimeter=parallelogramPerimeter;whiteSpace=wrap;html=1;fixedSize=1;" vertex="1" parent="WIyWlLk6GJQsqaUBKTNV-1">
          <mxGeometry x="17" y="594" width="120" height="60" as="geometry" />
        </mxCell>
        <mxCell id="7DHuiDKXyNgCOekrpri2-157" style="edgeStyle=orthogonalEdgeStyle;rounded=0;orthogonalLoop=1;jettySize=auto;html=1;exitX=0;exitY=0.5;exitDx=0;exitDy=0;entryX=1;entryY=0.5;entryDx=0;entryDy=0;" edge="1" parent="WIyWlLk6GJQsqaUBKTNV-1" source="7DHuiDKXyNgCOekrpri2-159" target="7DHuiDKXyNgCOekrpri2-156">
          <mxGeometry relative="1" as="geometry" />
        </mxCell>
        <mxCell id="7DHuiDKXyNgCOekrpri2-158" value="True" style="edgeLabel;html=1;align=center;verticalAlign=middle;resizable=0;points=[];" connectable="0" vertex="1" parent="7DHuiDKXyNgCOekrpri2-157">
          <mxGeometry x="-0.2498" y="-1" relative="1" as="geometry">
            <mxPoint as="offset" />
          </mxGeometry>
        </mxCell>
        <mxCell id="7DHuiDKXyNgCOekrpri2-187" style="edgeStyle=orthogonalEdgeStyle;rounded=0;orthogonalLoop=1;jettySize=auto;html=1;exitX=0.5;exitY=1;exitDx=0;exitDy=0;entryX=0.25;entryY=0;entryDx=0;entryDy=0;" edge="1" parent="WIyWlLk6GJQsqaUBKTNV-1" source="7DHuiDKXyNgCOekrpri2-159" target="7DHuiDKXyNgCOekrpri2-186">
          <mxGeometry relative="1" as="geometry" />
        </mxCell>
        <mxCell id="7DHuiDKXyNgCOekrpri2-159" value="如果篩選過後沒有資料" style="rhombus;whiteSpace=wrap;html=1;rounded=0;" vertex="1" parent="WIyWlLk6GJQsqaUBKTNV-1">
          <mxGeometry x="158.5" y="584" width="80" height="80" as="geometry" />
        </mxCell>
        <mxCell id="7DHuiDKXyNgCOekrpri2-163" style="edgeStyle=orthogonalEdgeStyle;rounded=0;orthogonalLoop=1;jettySize=auto;html=1;exitX=0;exitY=0.5;exitDx=0;exitDy=0;entryX=1;entryY=0.5;entryDx=0;entryDy=0;" edge="1" parent="WIyWlLk6GJQsqaUBKTNV-1" source="7DHuiDKXyNgCOekrpri2-161" target="7DHuiDKXyNgCOekrpri2-153">
          <mxGeometry relative="1" as="geometry" />
        </mxCell>
        <mxCell id="7DHuiDKXyNgCOekrpri2-161" value="input_check_num.check()" style="shape=process;whiteSpace=wrap;html=1;backgroundOutline=1;" vertex="1" parent="WIyWlLk6GJQsqaUBKTNV-1">
          <mxGeometry x="834.5" y="593.47" width="176" height="60" as="geometry" />
        </mxCell>
        <mxCell id="7DHuiDKXyNgCOekrpri2-164" style="edgeStyle=orthogonalEdgeStyle;rounded=0;orthogonalLoop=1;jettySize=auto;html=1;exitX=1;exitY=0.5;exitDx=0;exitDy=0;entryX=0;entryY=0.5;entryDx=0;entryDy=0;" edge="1" parent="WIyWlLk6GJQsqaUBKTNV-1" source="7DHuiDKXyNgCOekrpri2-168" target="7DHuiDKXyNgCOekrpri2-170">
          <mxGeometry relative="1" as="geometry" />
        </mxCell>
        <mxCell id="7DHuiDKXyNgCOekrpri2-165" value="True" style="edgeLabel;html=1;align=center;verticalAlign=middle;resizable=0;points=[];" connectable="0" vertex="1" parent="7DHuiDKXyNgCOekrpri2-164">
          <mxGeometry x="0.1875" y="1" relative="1" as="geometry">
            <mxPoint y="1" as="offset" />
          </mxGeometry>
        </mxCell>
        <mxCell id="7DHuiDKXyNgCOekrpri2-166" style="edgeStyle=orthogonalEdgeStyle;rounded=0;orthogonalLoop=1;jettySize=auto;html=1;exitX=0.5;exitY=1;exitDx=0;exitDy=0;entryX=0;entryY=0.5;entryDx=0;entryDy=0;" edge="1" parent="WIyWlLk6GJQsqaUBKTNV-1" source="7DHuiDKXyNgCOekrpri2-168" target="7DHuiDKXyNgCOekrpri2-179">
          <mxGeometry relative="1" as="geometry">
            <Array as="points">
              <mxPoint x="358" y="870" />
              <mxPoint x="810" y="870" />
              <mxPoint x="810" y="800" />
            </Array>
          </mxGeometry>
        </mxCell>
        <mxCell id="7DHuiDKXyNgCOekrpri2-167" value="False" style="edgeLabel;html=1;align=center;verticalAlign=middle;resizable=0;points=[];" connectable="0" vertex="1" parent="7DHuiDKXyNgCOekrpri2-166">
          <mxGeometry x="-0.98" y="-1" relative="1" as="geometry">
            <mxPoint y="1" as="offset" />
          </mxGeometry>
        </mxCell>
        <mxCell id="7DHuiDKXyNgCOekrpri2-168" value="for 資料 in 上個篩選結果" style="rhombus;whiteSpace=wrap;html=1;" vertex="1" parent="WIyWlLk6GJQsqaUBKTNV-1">
          <mxGeometry x="307.5" y="760" width="100" height="80" as="geometry" />
        </mxCell>
        <mxCell id="7DHuiDKXyNgCOekrpri2-169" style="edgeStyle=orthogonalEdgeStyle;rounded=0;orthogonalLoop=1;jettySize=auto;html=1;exitX=1;exitY=0.5;exitDx=0;exitDy=0;entryX=0;entryY=0.5;entryDx=0;entryDy=0;" edge="1" parent="WIyWlLk6GJQsqaUBKTNV-1" source="7DHuiDKXyNgCOekrpri2-170" target="7DHuiDKXyNgCOekrpri2-175">
          <mxGeometry relative="1" as="geometry" />
        </mxCell>
        <mxCell id="7DHuiDKXyNgCOekrpri2-170" value="將記帳紀錄的每個資料拉出來篩選" style="rounded=0;whiteSpace=wrap;html=1;" vertex="1" parent="WIyWlLk6GJQsqaUBKTNV-1">
          <mxGeometry x="465" y="775" width="43.5" height="50" as="geometry" />
        </mxCell>
        <mxCell id="7DHuiDKXyNgCOekrpri2-171" style="edgeStyle=orthogonalEdgeStyle;rounded=0;orthogonalLoop=1;jettySize=auto;html=1;exitX=1;exitY=0.5;exitDx=0;exitDy=0;entryX=0;entryY=0.5;entryDx=0;entryDy=0;" edge="1" parent="WIyWlLk6GJQsqaUBKTNV-1" source="7DHuiDKXyNgCOekrpri2-175" target="7DHuiDKXyNgCOekrpri2-176">
          <mxGeometry relative="1" as="geometry" />
        </mxCell>
        <mxCell id="7DHuiDKXyNgCOekrpri2-172" value="True" style="edgeLabel;html=1;align=center;verticalAlign=middle;resizable=0;points=[];" connectable="0" vertex="1" parent="7DHuiDKXyNgCOekrpri2-171">
          <mxGeometry x="-0.0545" y="3" relative="1" as="geometry">
            <mxPoint y="1" as="offset" />
          </mxGeometry>
        </mxCell>
        <mxCell id="7DHuiDKXyNgCOekrpri2-173" style="edgeStyle=orthogonalEdgeStyle;rounded=0;orthogonalLoop=1;jettySize=auto;html=1;exitX=0.5;exitY=0;exitDx=0;exitDy=0;entryX=0.5;entryY=0;entryDx=0;entryDy=0;" edge="1" parent="WIyWlLk6GJQsqaUBKTNV-1" source="7DHuiDKXyNgCOekrpri2-175" target="7DHuiDKXyNgCOekrpri2-168">
          <mxGeometry relative="1" as="geometry" />
        </mxCell>
        <mxCell id="7DHuiDKXyNgCOekrpri2-174" value="False" style="edgeLabel;html=1;align=center;verticalAlign=middle;resizable=0;points=[];" connectable="0" vertex="1" parent="7DHuiDKXyNgCOekrpri2-173">
          <mxGeometry x="-0.9021" y="-1" relative="1" as="geometry">
            <mxPoint as="offset" />
          </mxGeometry>
        </mxCell>
        <mxCell id="7DHuiDKXyNgCOekrpri2-175" value="如果輸入要查找的備註與資料相同 或是 輸入是空的" style="rhombus;whiteSpace=wrap;html=1;rounded=0;" vertex="1" parent="WIyWlLk6GJQsqaUBKTNV-1">
          <mxGeometry x="533.5" y="763.75" width="142.5" height="72.5" as="geometry" />
        </mxCell>
        <mxCell id="7DHuiDKXyNgCOekrpri2-176" value="將資料放入篩選過後的結果中" style="whiteSpace=wrap;html=1;rounded=0;" vertex="1" parent="WIyWlLk6GJQsqaUBKTNV-1">
          <mxGeometry x="703.5" y="770" width="93" height="60" as="geometry" />
        </mxCell>
        <mxCell id="7DHuiDKXyNgCOekrpri2-177" style="edgeStyle=orthogonalEdgeStyle;rounded=0;orthogonalLoop=1;jettySize=auto;html=1;exitX=1;exitY=0.5;exitDx=0;exitDy=0;entryX=0;entryY=0.5;entryDx=0;entryDy=0;" edge="1" parent="WIyWlLk6GJQsqaUBKTNV-1" source="7DHuiDKXyNgCOekrpri2-179" target="7DHuiDKXyNgCOekrpri2-181">
          <mxGeometry relative="1" as="geometry" />
        </mxCell>
        <mxCell id="7DHuiDKXyNgCOekrpri2-178" value="True" style="edgeLabel;html=1;align=center;verticalAlign=middle;resizable=0;points=[];" connectable="0" vertex="1" parent="7DHuiDKXyNgCOekrpri2-177">
          <mxGeometry x="-0.2991" y="-2" relative="1" as="geometry">
            <mxPoint y="4" as="offset" />
          </mxGeometry>
        </mxCell>
        <mxCell id="7DHuiDKXyNgCOekrpri2-189" style="edgeStyle=orthogonalEdgeStyle;rounded=0;orthogonalLoop=1;jettySize=auto;html=1;exitX=0.5;exitY=1;exitDx=0;exitDy=0;entryX=0.5;entryY=0;entryDx=0;entryDy=0;" edge="1" parent="WIyWlLk6GJQsqaUBKTNV-1" source="7DHuiDKXyNgCOekrpri2-179" target="7DHuiDKXyNgCOekrpri2-188">
          <mxGeometry relative="1" as="geometry">
            <Array as="points">
              <mxPoint x="867" y="910" />
              <mxPoint x="867" y="910" />
            </Array>
          </mxGeometry>
        </mxCell>
        <mxCell id="7DHuiDKXyNgCOekrpri2-190" value="False" style="edgeLabel;html=1;align=center;verticalAlign=middle;resizable=0;points=[];" connectable="0" vertex="1" parent="7DHuiDKXyNgCOekrpri2-189">
          <mxGeometry x="-0.0533" y="1" relative="1" as="geometry">
            <mxPoint x="-1" y="-30" as="offset" />
          </mxGeometry>
        </mxCell>
        <mxCell id="7DHuiDKXyNgCOekrpri2-179" value="如果篩選過後沒有資料" style="rhombus;whiteSpace=wrap;html=1;rounded=0;" vertex="1" parent="WIyWlLk6GJQsqaUBKTNV-1">
          <mxGeometry x="827" y="760" width="80" height="80" as="geometry" />
        </mxCell>
        <mxCell id="7DHuiDKXyNgCOekrpri2-180" style="edgeStyle=orthogonalEdgeStyle;rounded=0;orthogonalLoop=1;jettySize=auto;html=1;exitX=1;exitY=0.5;exitDx=0;exitDy=0;entryX=0;entryY=0.5;entryDx=0;entryDy=0;" edge="1" parent="WIyWlLk6GJQsqaUBKTNV-1" source="7DHuiDKXyNgCOekrpri2-181" target="7DHuiDKXyNgCOekrpri2-182">
          <mxGeometry relative="1" as="geometry" />
        </mxCell>
        <mxCell id="7DHuiDKXyNgCOekrpri2-181" value="輸出&#39;查無資料&#39;" style="shape=parallelogram;perimeter=parallelogramPerimeter;whiteSpace=wrap;html=1;fixedSize=1;" vertex="1" parent="WIyWlLk6GJQsqaUBKTNV-1">
          <mxGeometry x="940" y="770" width="120" height="60" as="geometry" />
        </mxCell>
        <mxCell id="7DHuiDKXyNgCOekrpri2-182" value="end" style="ellipse;whiteSpace=wrap;html=1;" vertex="1" parent="WIyWlLk6GJQsqaUBKTNV-1">
          <mxGeometry x="1080" y="760" width="80" height="80" as="geometry" />
        </mxCell>
        <mxCell id="7DHuiDKXyNgCOekrpri2-183" style="edgeStyle=orthogonalEdgeStyle;rounded=0;orthogonalLoop=1;jettySize=auto;html=1;exitX=1;exitY=0.25;exitDx=0;exitDy=0;entryX=0;entryY=0.5;entryDx=0;entryDy=0;" edge="1" parent="WIyWlLk6GJQsqaUBKTNV-1" source="7DHuiDKXyNgCOekrpri2-186" target="7DHuiDKXyNgCOekrpri2-168">
          <mxGeometry relative="1" as="geometry">
            <mxPoint x="80" y="810" as="sourcePoint" />
          </mxGeometry>
        </mxCell>
        <mxCell id="7DHuiDKXyNgCOekrpri2-186" value="輸入要查詢的備註" style="shape=parallelogram;perimeter=parallelogramPerimeter;whiteSpace=wrap;html=1;fixedSize=1;" vertex="1" parent="WIyWlLk6GJQsqaUBKTNV-1">
          <mxGeometry x="155" y="790" width="130" height="35" as="geometry" />
        </mxCell>
        <mxCell id="7DHuiDKXyNgCOekrpri2-192" style="edgeStyle=orthogonalEdgeStyle;rounded=0;orthogonalLoop=1;jettySize=auto;html=1;exitX=0.5;exitY=1;exitDx=0;exitDy=0;entryX=0.5;entryY=0;entryDx=0;entryDy=0;" edge="1" parent="WIyWlLk6GJQsqaUBKTNV-1" source="7DHuiDKXyNgCOekrpri2-188" target="7DHuiDKXyNgCOekrpri2-191">
          <mxGeometry relative="1" as="geometry" />
        </mxCell>
        <mxCell id="7DHuiDKXyNgCOekrpri2-188" value="回傳結果" style="rounded=0;whiteSpace=wrap;html=1;" vertex="1" parent="WIyWlLk6GJQsqaUBKTNV-1">
          <mxGeometry x="812" y="880" width="120" height="60" as="geometry" />
        </mxCell>
        <mxCell id="7DHuiDKXyNgCOekrpri2-191" value="end" style="ellipse;whiteSpace=wrap;html=1;" vertex="1" parent="WIyWlLk6GJQsqaUBKTNV-1">
          <mxGeometry x="832" y="960" width="80" height="80" as="geometry" />
        </mxCell>
      </root>
    </mxGraphModel>
  </diagram>
</mxfile>
